<svg xmlns="http://www.w3.org/2000/svg" version="1.1" xmlns:xlink="http://www.w3.org/1999/xlink" xmlns:svgjs="http://svgjs.dev/svgjs" width="2000" height="590" viewBox="0 0 2000 590"><g transform="matrix(1,0,0,1,-1.2112696095522324,-0.35960938823399147)"><svg viewBox="0 0 396 117" data-background-color="#ffffff" preserveAspectRatio="xMidYMid meet" height="590" width="2000" xmlns="http://www.w3.org/2000/svg" xmlns:xlink="http://www.w3.org/1999/xlink"><g id="tight-bounds" transform="matrix(1,0,0,1,0.24008861730862918,0.07131237020911385)"><svg viewBox="0 0 395.52 116.85737525958179" height="116.85737525958179" width="395.52"><g><svg viewBox="0 0 395.52 116.85737525958179" height="116.85737525958179" width="395.52"><g><svg viewBox="0 0 395.52 116.85737525958179" height="116.85737525958179" width="395.52"><g id="textblocktransform"><svg viewBox="0 0 395.52 116.85737525958179" height="116.85737525958179" width="395.52" id="textblock"><g><svg viewBox="0 0 395.52 89.53738266461178" height="89.53738266461178" width="395.52"><path d="M394.594 19.204C392.735 9.91 387.435 7.326 387.435 7.326 371.165-2.246 350.86-0.183 332.619 1.192 300.414 1.248 268.339 3.293 236.208 4.39 168.767 4.557 100.749 1.806 33.643 8.59 27.339 10.672-6.54 8.999 1.121 20.394 3.129 25.134 10.456 30.394 10.232 34.744 11.236 35.506 12.631 33.758 13.226 34.855 15.309 37.811 18.711 36.416 21.501 38.164 17.614 42.829 20.403 46.714 23.062 50.785 18.377 51.844 12.371 51.343 9.675 54.856 9.396 57.402 7.89 56.919 6.235 56.807 5.026 56.733 2.59 57.012 2.999 57.811 4.394 60.544-1.594 62.124 2.162 64.8-0.422 67.7 3.948 70.209 3.353 73.351 3.278 73.983 3.687 74.522 4.338 74.67 7.22 75.47 3.018 77.031 3.464 78.723 33.029 90.284 65.104 82.291 95.394 87.608 103.259 83.89 97.346 88.927 100.489 88.147 102.943 87.236 104.728 91.009 107.499 88.871 107.927 88.258 107.276 86.808 108.8 87.087 109.6 87.236 110.307 87.199 110.418 86.344 110.586 85.061 109.117 85.86 108.726 85.191 112.947 81.808 111.906 89.857 115.866 89.522 115.68 88.537 114.528 87.124 116.889 87.31 119.232 85.897 119.306 84.726 121.389 87.905 121.463 88.593 121.835 89.076 122.43 89.411 128.938 85.953 135.409 90.637 142.233 89.076 146.417 87.366 150.433 90.005 154.672 89.355 156.16 88.834 157.666 87.905 159.098 89.466 176.632 89.801 195.319 88.407 211.943 89.522 256.364 87.44 303.836 90.377 350.674 87.626 361.719 86.567 373.192 85.061 383.958 83.853 383.958 83.853 392.679 80.544 392.679 65.674S394.538 52.662 394.817 40.822C395.096 28.981 396.398 28.498 394.538 19.204Z" opacity="1" fill="#8abe53" data-fill-palette-color="tertiary"></path><g transform="matrix(1,0,0,1,55.76832,26.068561146666667)"><svg width="283.98335999999995" viewBox="3.85 -37.1 285.46999999999997 37.6" height="37.400260371278456" data-palette-color="#ffffff"><path d="M6.25 0L4.65 0Q4.2 0 4.03-0.2 3.85-0.4 3.85-0.8L3.85-0.8 3.85-36.4Q3.85-37.1 4.45-37.1L4.45-37.1 7.55-37.1Q8.05-37.1 8.05-36.4L8.05-36.4 8.05-24.15Q8.05-23.6 8.25-23.58 8.45-23.55 8.8-23.85L8.8-23.85Q9.25-24.3 10.28-25.05 11.3-25.8 12.93-26.4 14.55-27 16.8-27L16.8-27Q20.45-27 22.8-25.2 25.15-23.4 26.33-20.33 27.5-17.25 27.5-13.4L27.5-13.4Q27.5-7 24.5-3.25 21.5 0.5 16.1 0.5L16.1 0.5Q13.8 0.5 12.18-0.2 10.55-0.9 9.5-1.85 8.45-2.8 7.95-3.45L7.95-3.45Q7.75-3.7 7.6-3.65 7.45-3.6 7.4-3.3L7.4-3.3 7.15-0.8Q7.05 0 6.25 0L6.25 0ZM8.05-20.25L8.05-8.95Q8.05-7.15 9.08-5.68 10.1-4.2 11.75-3.35 13.4-2.5 15.2-2.5L15.2-2.5Q17.45-2.5 19.25-3.63 21.05-4.75 22.1-7.15 23.15-9.55 23.15-13.3L23.15-13.3Q23.15-18.4 21.2-21.18 19.25-23.95 15.55-23.95L15.55-23.95Q13.2-23.95 11.28-22.88 9.35-21.8 8.05-20.25L8.05-20.25ZM44.9 0.5L44.9 0.5Q41.15 0.5 38.27-1.23 35.4-2.95 33.82-6.03 32.25-9.1 32.25-13.1L32.25-13.1Q32.25-17.25 33.87-20.38 35.5-23.5 38.35-25.25 41.2-27 44.95-27L44.95-27Q48.75-27 51.57-25.23 54.4-23.45 55.97-20.33 57.55-17.2 57.55-13.15L57.55-13.15Q57.55-9.15 55.95-6.08 54.35-3 51.52-1.25 48.7 0.5 44.9 0.5L44.9 0.5ZM45-2.65L45-2.65Q47.6-2.65 49.45-3.93 51.3-5.2 52.27-7.58 53.25-9.95 53.25-13.25L53.25-13.25Q53.25-16.55 52.25-18.93 51.25-21.3 49.4-22.6 47.55-23.9 44.95-23.9L44.95-23.9Q42.4-23.9 40.5-22.6 38.6-21.3 37.57-18.93 36.55-16.55 36.55-13.25L36.55-13.25Q36.55-10 37.57-7.6 38.6-5.2 40.5-3.93 42.4-2.65 45-2.65L45-2.65ZM68-36.45L68-0.85Q68-0.35 67.8-0.18 67.6 0 67.1 0L67.1 0 64.5 0Q63.75 0 63.75-0.7L63.75-0.7 63.8-36.4Q63.8-37.1 64.4-37.1L64.4-37.1 67.4-37.1Q68-37.1 68-36.45L68-36.45ZM79.89-25.85L79.89-0.85Q79.89-0.35 79.72-0.18 79.54 0 78.99 0L78.99 0 76.44 0Q75.99 0 75.84-0.15 75.69-0.3 75.69-0.7L75.69-0.7 75.69-25.8Q75.69-26.5 76.29-26.5L76.29-26.5 79.34-26.5Q79.89-26.5 79.89-25.85L79.89-25.85ZM80.09-36.35L80.09-32.2Q80.09-31.25 79.19-31.25L79.19-31.25 76.29-31.25Q75.84-31.25 75.69-31.48 75.54-31.7 75.54-32.1L75.54-32.1 75.54-36.3Q75.54-37.1 76.24-37.1L76.24-37.1 79.39-37.1Q80.09-37.1 80.09-36.35L80.09-36.35ZM109.19-26.5L109.19-26.5Q109.54-26.5 109.69-26.28 109.84-26.05 109.69-25.75L109.69-25.75 99.54-0.75Q99.29 0 98.39 0L98.39 0 96.59 0Q95.64 0 95.34-0.7L95.34-0.7 85.24-25.75Q85.14-26.05 85.29-26.28 85.44-26.5 85.79-26.5L85.79-26.5 88.89-26.5Q89.19-26.5 89.39-26.38 89.59-26.25 89.69-25.95L89.69-25.95 97.54-6.3Q97.89-5.35 98.34-6.35L98.34-6.35 106.14-25.95Q106.24-26.25 106.42-26.38 106.59-26.5 106.89-26.5L106.89-26.5 109.19-26.5ZM119.19-25.85L119.19-0.85Q119.19-0.35 119.01-0.18 118.84 0 118.29 0L118.29 0 115.74 0Q115.29 0 115.14-0.15 114.99-0.3 114.99-0.7L114.99-0.7 114.99-25.8Q114.99-26.5 115.59-26.5L115.59-26.5 118.64-26.5Q119.19-26.5 119.19-25.85L119.19-25.85ZM119.39-36.35L119.39-32.2Q119.39-31.25 118.49-31.25L118.49-31.25 115.59-31.25Q115.14-31.25 114.99-31.48 114.84-31.7 114.84-32.1L114.84-32.1 114.84-36.3Q114.84-37.1 115.54-37.1L115.54-37.1 118.69-37.1Q119.39-37.1 119.39-36.35L119.39-36.35ZM142.19-3.2L142.19-3.2Q140.34-1.4 138.16-0.45 135.99 0.5 133.29 0.5L133.29 0.5Q129.39 0.5 127.16-1.5 124.94-3.5 124.94-6.75L124.94-6.75Q124.94-9.4 126.44-11.33 127.94-13.25 130.89-14.38 133.84-15.5 138.14-15.75L138.14-15.75 142.04-16.05Q142.34-16.1 142.59-16.25 142.84-16.4 142.84-16.8L142.84-16.8 142.84-18.15Q142.84-20.85 141.16-22.43 139.49-24 136.64-24L136.64-24Q134.44-24 132.66-23 130.89-22 129.49-20L129.49-20Q129.29-19.75 129.16-19.68 129.04-19.6 128.74-19.7L128.74-19.7 126.04-20.6Q125.89-20.7 125.81-20.85 125.74-21 125.94-21.4L125.94-21.4Q127.44-24 130.16-25.5 132.89-27 136.84-27L136.84-27Q140.19-27 142.41-25.98 144.64-24.95 145.76-23.03 146.89-21.1 146.89-18.45L146.89-18.45 146.89-0.75Q146.89-0.3 146.74-0.15 146.59 0 146.24 0L146.24 0 143.69 0Q143.34 0 143.19-0.23 143.04-0.45 142.99-0.8L142.99-0.8 142.94-3.1Q142.79-3.8 142.19-3.2L142.19-3.2ZM142.84-12.7L142.84-12.7Q142.84-13.55 142.14-13.5L142.14-13.5 138.84-13.2Q136.54-13.1 134.74-12.63 132.94-12.15 131.69-11.4 130.44-10.65 129.79-9.63 129.14-8.6 129.14-7.25L129.14-7.25Q129.14-5.05 130.66-3.83 132.19-2.6 134.79-2.6L134.79-2.6Q136.39-2.6 137.86-3.18 139.34-3.75 140.44-4.65L140.44-4.65Q141.59-5.6 142.21-6.6 142.84-7.6 142.84-8.55L142.84-8.55 142.84-12.7ZM178.38-23.35L172.03-23.35Q171.63-23.35 171.63-22.95L171.63-22.95 171.63-7.1Q171.63-4.75 172.43-3.95 173.23-3.15 174.83-3.15L174.83-3.15 178.28-3.15Q178.53-3.15 178.68-3.03 178.83-2.9 178.83-2.6L178.83-2.6 178.78-0.9Q178.78-0.4 178.18-0.25L178.18-0.25Q177.68-0.15 176.75-0.1 175.83-0.05 174.96-0.03 174.08 0 173.48 0L173.48 0Q170.33 0 168.88-1.48 167.43-2.95 167.43-6.15L167.43-6.15 167.43-22.85Q167.43-23.35 166.93-23.35L166.93-23.35 162.93-23.35Q162.38-23.35 162.38-23.9L162.38-23.9 162.38-26Q162.38-26.5 162.88-26.5L162.88-26.5 167.13-26.5Q167.48-26.5 167.48-26.9L167.48-26.9 168.03-34.85Q168.08-35.5 168.58-35.5L168.58-35.5 171.08-35.5Q171.68-35.5 171.68-34.8L171.68-34.8 171.68-26.9Q171.68-26.5 172.08-26.5L172.08-26.5 178.38-26.5Q178.93-26.5 178.93-26.05L178.93-26.05 178.93-23.9Q178.93-23.35 178.38-23.35L178.38-23.35ZM185.08 0L185.08 0Q184.73 0 184.55-0.18 184.38-0.35 184.38-0.65L184.38-0.65 184.38-25.85Q184.38-26.5 184.93-26.5L184.93-26.5 187.83-26.5Q188.38-26.5 188.38-25.95L188.38-25.95 188.38-22.7Q188.38-22.4 188.53-22.35 188.68-22.3 188.93-22.55L188.93-22.55Q190.23-24.1 191.5-25.08 192.78-26.05 194.08-26.53 195.38-27 196.68-27L196.68-27Q198.43-27 198.43-26.35L198.43-26.35 198.43-23.35Q198.43-22.85 197.98-22.95L197.98-22.95Q197.53-23 196.95-23.05 196.38-23.1 195.73-23.1L195.73-23.1Q194.63-23.1 193.38-22.63 192.13-22.15 191.05-21.3 189.98-20.45 189.28-19.4 188.58-18.35 188.58-17.3L188.58-17.3 188.58-0.75Q188.58 0 187.83 0L187.83 0 185.08 0ZM218.47-3.2L218.47-3.2Q216.63-1.4 214.45-0.45 212.28 0.5 209.57 0.5L209.57 0.5Q205.68 0.5 203.45-1.5 201.22-3.5 201.22-6.75L201.22-6.75Q201.22-9.4 202.72-11.33 204.22-13.25 207.18-14.38 210.13-15.5 214.43-15.75L214.43-15.75 218.32-16.05Q218.63-16.1 218.88-16.25 219.13-16.4 219.13-16.8L219.13-16.8 219.13-18.15Q219.13-20.85 217.45-22.43 215.78-24 212.93-24L212.93-24Q210.72-24 208.95-23 207.18-22 205.78-20L205.78-20Q205.57-19.75 205.45-19.68 205.32-19.6 205.03-19.7L205.03-19.7 202.32-20.6Q202.18-20.7 202.1-20.85 202.03-21 202.22-21.4L202.22-21.4Q203.72-24 206.45-25.5 209.18-27 213.13-27L213.13-27Q216.47-27 218.7-25.98 220.93-24.95 222.05-23.03 223.18-21.1 223.18-18.45L223.18-18.45 223.18-0.75Q223.18-0.3 223.03-0.15 222.88 0 222.53 0L222.53 0 219.97 0Q219.63 0 219.47-0.23 219.32-0.45 219.28-0.8L219.28-0.8 219.22-3.1Q219.07-3.8 218.47-3.2L218.47-3.2ZM219.13-12.7L219.13-12.7Q219.13-13.55 218.43-13.5L218.43-13.5 215.13-13.2Q212.82-13.1 211.03-12.63 209.22-12.15 207.97-11.4 206.72-10.65 206.07-9.63 205.43-8.6 205.43-7.25L205.43-7.25Q205.43-5.05 206.95-3.83 208.47-2.6 211.07-2.6L211.07-2.6Q212.68-2.6 214.15-3.18 215.63-3.75 216.72-4.65L216.72-4.65Q217.88-5.6 218.5-6.6 219.13-7.6 219.13-8.55L219.13-8.55 219.13-12.7ZM251.52-26.5L251.52-26.5Q251.87-26.5 252.02-26.28 252.17-26.05 252.02-25.75L252.02-25.75 241.87-0.75Q241.62 0 240.72 0L240.72 0 238.92 0Q237.97 0 237.67-0.7L237.67-0.7 227.57-25.75Q227.47-26.05 227.62-26.28 227.77-26.5 228.12-26.5L228.12-26.5 231.22-26.5Q231.52-26.5 231.72-26.38 231.92-26.25 232.02-25.95L232.02-25.95 239.87-6.3Q240.22-5.35 240.67-6.35L240.67-6.35 248.47-25.95Q248.57-26.25 248.75-26.38 248.92-26.5 249.22-26.5L249.22-26.5 251.52-26.5ZM258.82-11.6L258.82-11.6Q258.82-9.15 260-7.13 261.17-5.1 263.14-3.9 265.12-2.7 267.57-2.7L267.57-2.7Q270.07-2.7 272.02-3.73 273.97-4.75 275.37-6.85L275.37-6.85Q275.57-7.05 275.69-7.08 275.82-7.1 276.07-7L276.07-7 278.17-5.95Q278.62-5.7 278.27-5.25L278.27-5.25Q276.92-3.25 275.29-1.98 273.67-0.7 271.67-0.1 269.67 0.5 267.17 0.5L267.17 0.5Q263.47 0.5 260.62-1.2 257.77-2.9 256.12-5.95 254.47-9 254.47-13L254.47-13Q254.47-17.35 256.14-20.48 257.82-23.6 260.69-25.3 263.57-27 267.12-27L267.12-27Q270.77-27 273.47-25.4 276.17-23.8 277.67-20.75 279.17-17.7 279.17-13.4L279.17-13.4Q279.17-13.05 279.09-12.7 279.02-12.35 278.42-12.35L278.42-12.35 259.27-12.35Q259.07-12.35 258.94-12.13 258.82-11.9 258.82-11.6L258.82-11.6ZM258.92-15.1L274.12-15.1Q274.67-15.1 274.82-15.23 274.97-15.35 274.97-15.8L274.97-15.8Q274.97-17.95 274.04-19.83 273.12-21.7 271.39-22.85 269.67-24 267.22-24L267.22-24Q264.52-24 262.67-22.73 260.82-21.45 259.87-19.4 258.92-17.35 258.92-15.1L258.92-15.1ZM289.32-36.45L289.32-0.85Q289.32-0.35 289.12-0.18 288.92 0 288.42 0L288.42 0 285.82 0Q285.07 0 285.07-0.7L285.07-0.7 285.12-36.4Q285.12-37.1 285.72-37.1L285.72-37.1 288.72-37.1Q289.32-37.1 289.32-36.45L289.32-36.45Z" opacity="1" transform="matrix(1,0,0,1,0,0)" fill="#ffffff" class="wordmark-text-0" data-fill-palette-color="quaternary" id="text-0"></path></svg></g></svg></g><g transform="matrix(1,0,0,1,102.26360531138032,98.36668653202172)"><svg viewBox="0 0 190.99278937723935 18.49068872756007" height="18.49068872756007" width="190.99278937723935"><g transform="matrix(1,0,0,1,0,0)"><svg width="190.99278937723935" viewBox="0.71 -35.39 370.20000000000005 35.850690607734805" height="18.49068872756007" data-palette-color="#8abe53"><path d="M8.06-21.99L8.06-7.33Q8.06-5.08 9.11-3.87 10.16-2.65 11.99-2.65 13.83-2.65 15.47-3.11L15.47-3.11 15.47-0.23Q14.89 0.05 13.64 0.25 12.39 0.46 11.5 0.46L11.5 0.46Q4.27 0.46 4.27-7.15L4.27-7.15 4.27-21.99 0.71-21.99 0.71-23.81 4.27-25.38 5.86-30.71 8.06-30.71 8.06-24.92 15.29-24.92 15.29-21.99 8.06-21.99ZM41.3-16.25L41.3 0 37.51 0 37.51-16.13Q37.51-19.21 36.12-20.69 34.73-22.17 31.8-22.17L31.8-22.17Q27.83-22.17 26.03-20.02 24.24-17.87 24.24-13.04L24.24-13.04 24.24 0 20.45 0 20.45-35.39 24.24-35.39 24.24-24.67Q24.24-22.65 24.06-21.49L24.06-21.49 24.29-21.49Q25.43-23.31 27.49-24.33 29.55-25.35 32.15-25.35L32.15-25.35Q36.78-25.35 39.04-23.15 41.3-20.96 41.3-16.25L41.3-16.25ZM59.58 0.46L59.58 0.46Q54.04 0.46 50.83-2.91L50.83-2.91Q47.64-6.27 47.64-12.29 47.64-18.3 50.6-21.84L50.6-21.84Q53.61-25.38 58.45-25.38 63.29-25.38 66.02-22.3 68.75-19.21 68.75-14.18L68.75-14.18 68.75-11.78 51.56-11.78Q51.69-7.41 53.79-5.12 55.88-2.83 59.84-2.83 63.8-2.83 67.66-4.52L67.66-4.52 67.66-1.16Q65.72-0.3 63.9 0.08 62.08 0.46 59.58 0.46ZM51.66-14.86L64.71-14.86Q64.71-18.43 63.11-20.32 61.52-22.22 58.55-22.22 55.58-22.22 53.77-20.27 51.97-18.33 51.66-14.86L51.66-14.86ZM92.41-21.61Q95.01-25.35 100.09-25.35 105.17-25.35 107.88-21.98 110.58-18.6 110.58-12.46 110.58-6.32 107.84-2.93 105.1 0.46 100.08 0.46 95.06 0.46 92.41-3.21L92.41-3.21 92.13-3.21 91.32 0 88.61 0 88.61-35.39 92.41-35.39 92.41-26.79Q92.41-23.76 92.23-21.61L92.23-21.61 92.41-21.61ZM104.94-5.22Q106.66-7.74 106.66-12.58 106.66-17.42 104.96-19.79 103.25-22.17 99.52-22.17 95.79-22.17 94.1-19.97 92.41-17.77 92.41-12.5 92.41-7.23 94.15-4.97 95.89-2.7 99.76-2.7L99.76-2.7Q103.23-2.7 104.94-5.22ZM127.69 0.46L127.69 0.46Q122.16 0.46 118.95-2.91L118.95-2.91Q115.76-6.27 115.76-12.29 115.76-18.3 118.72-21.84L118.72-21.84Q121.73-25.38 126.57-25.38 131.41-25.38 134.14-22.3 136.87-19.21 136.87-14.18L136.87-14.18 136.87-11.78 119.68-11.78Q119.81-7.41 121.9-5.12 124-2.83 127.96-2.83 131.91-2.83 135.78-4.52L135.78-4.52 135.78-1.16Q133.83-0.3 132.01 0.08 130.19 0.46 127.69 0.46ZM119.78-14.86L132.82-14.86Q132.82-18.43 131.23-20.32 129.64-22.22 126.67-22.22 123.7-22.22 121.89-20.27 120.08-18.33 119.78-14.86L119.78-14.86ZM159.39-6.8L159.39-6.8Q159.39-3.31 156.8-1.43 154.21 0.46 149.38 0.46 144.55 0.46 141.77-1.11L141.77-1.11 141.77-4.63Q145.66-2.65 149.61-2.65L149.61-2.65Q155.75-2.65 155.75-6.47L155.75-6.47Q155.75-7.94 154.46-8.99 153.17-10.04 149.66-11.36 146.14-12.69 144.6-13.68L144.6-13.68Q141.69-15.65 141.69-18.76 141.69-21.87 144.17-23.62 146.65-25.38 150.86-25.38 155.07-25.38 158.86-23.76L158.86-23.76 157.52-20.68Q153.8-22.22 150.93-22.22 148.06-22.22 146.69-21.4 145.31-20.58 145.31-19.06L145.31-19.06Q145.31-18.1 145.8-17.38 146.29-16.66 147.43-16.01 148.57-15.37 151.83-14.18L151.83-14.18Q156.28-12.54 157.83-10.91 159.39-9.28 159.39-6.8ZM169.57-21.99L169.57-7.33Q169.57-5.08 170.62-3.87 171.67-2.65 173.5-2.65 175.34-2.65 176.98-3.11L176.98-3.11 176.98-0.23Q176.4 0.05 175.15 0.25 173.9 0.46 173.01 0.46L173.01 0.46Q165.78 0.46 165.78-7.15L165.78-7.15 165.78-21.99 162.22-21.99 162.22-23.81 165.78-25.38 167.37-30.71 169.57-30.71 169.57-24.92 176.8-24.92 176.8-21.99 169.57-21.99ZM198.92-29.82Q198.28-29.17 197.3-29.17 196.31-29.17 195.71-29.82 195.1-30.46 195.1-31.7 195.1-32.94 195.71-33.57 196.31-34.2 197.3-34.2 198.28-34.2 198.92-33.56 199.55-32.91 199.55-31.69 199.55-30.46 198.92-29.82ZM195.4-24.92L199.19-24.92 199.19 0 195.4 0 195.4-24.92ZM228.03-16.25L228.03 0 224.24 0 224.24-16.13Q224.24-19.21 222.85-20.69 221.46-22.17 218.53-22.17L218.53-22.17Q214.61-22.17 212.79-20.06 210.97-17.95 210.97-13.07L210.97-13.07 210.97 0 207.18 0 207.18-24.92 210.26-24.92 210.87-21.51 211.05-21.51Q212.21-23.33 214.31-24.36 216.41-25.38 218.98-25.38L218.98-25.38Q223.53-25.38 225.78-23.18 228.03-20.98 228.03-16.25L228.03-16.25ZM253-21.61Q255.61-25.35 260.69-25.35 265.77-25.35 268.47-21.98 271.18-18.6 271.18-12.46 271.18-6.32 268.44-2.93 265.69 0.46 260.68 0.46 255.66 0.46 253-3.21L253-3.21 252.73-3.21 251.92 0 249.21 0 249.21-35.39 253-35.39 253-26.79Q253-23.76 252.83-21.61L252.83-21.61 253-21.61ZM265.54-5.22Q267.26-7.74 267.26-12.58 267.26-17.42 265.55-19.79 263.85-22.17 260.12-22.17 256.39-22.17 254.7-19.97 253-17.77 253-12.5 253-7.23 254.75-4.97 256.49-2.7 260.36-2.7L260.36-2.7Q263.82-2.7 265.54-5.22ZM279.43-21.99Q282.5-25.38 287.81-25.38 293.12-25.38 296.2-21.9 299.28-18.43 299.28-12.42 299.28-6.42 296.2-2.96L296.2-2.96Q293.12 0.46 287.73 0.46L287.73 0.46Q282.65 0.51 279.47-3.06 276.28-6.62 276.36-12.49L276.36-12.49Q276.36-18.6 279.43-21.99ZM287.76-22.17L287.76-22.17Q280.28-22.17 280.28-12.49L280.28-12.49Q280.28-7.71 282.18-5.21 284.09-2.7 287.81-2.7 291.52-2.7 293.45-5.19 295.37-7.68 295.37-12.47 295.37-17.26 293.45-19.72 291.52-22.17 287.76-22.17ZM305.88-35.39L309.67-35.39 309.67 0 305.88 0 305.88-35.39ZM321.17-29.82Q320.54-29.17 319.55-29.17 318.57-29.17 317.96-29.82 317.35-30.46 317.35-31.7 317.35-32.94 317.96-33.57 318.57-34.2 319.55-34.2 320.54-34.2 321.17-33.56 321.8-32.91 321.8-31.69 321.8-30.46 321.17-29.82ZM317.66-24.92L321.45-24.92 321.45 0 317.66 0 317.66-24.92ZM348.77-24.92L339.32 0 334.89 0 325.44-24.92 329.48-24.92 334.87-10.14Q336.69-4.9 336.99-3.41L336.99-3.41 337.17-3.41Q337.45-4.65 338.6-7.94 339.75-11.22 344.73-24.92L344.73-24.92 348.77-24.92ZM354.86-6.85L354.86-6.85Q354.86-4.83 356.1-3.74 357.34-2.65 359.56-2.65L359.56-2.65Q363.13-2.65 365.12-4.59 367.12-6.52 367.12-10.01L367.12-10.01 367.12-12.26 363.35-12.11Q358.86-11.93 356.86-10.69 354.86-9.45 354.86-6.85ZM370.91-17.01L370.91 0 368.11 0 367.35-3.54 367.17-3.54Q365.3-1.21 363.46-0.38 361.61 0.46 358.83 0.46L358.83 0.46Q355.09 0.46 353-1.47 350.92-3.39 350.92-6.9L350.92-6.9Q350.92-14.43 362.98-14.81L362.98-14.81 367.22-14.94 367.22-16.48Q367.22-19.46 365.96-20.84 364.69-22.22 361.75-22.22 358.8-22.22 354.86-20.32L354.86-20.32 353.7-23.21Q357.64-25.35 362.14-25.35 366.64-25.35 368.78-23.36 370.91-21.36 370.91-17.01L370.91-17.01Z" opacity="1" transform="matrix(1,0,0,1,0,0)" fill="#8abe53" class="slogan-text-1" data-fill-palette-color="secondary" id="text-1"></path></svg></g></svg></g></svg></g></svg></g><g></g></svg></g><defs></defs></svg><rect width="395.52" height="116.85737525958179" fill="none" stroke="none" visibility="hidden"></rect></g></svg></g></svg>